<svg width="138" height="144" viewBox="0 0 138 144" fill="none" xmlns="http://www.w3.org/2000/svg">
<g clip-path="url(#clip0_398_1159)">
<path d="M15.0436 143.215C12.2354 142.546 9.49417 141.711 7.12062 139.939C2.57411 136.496 0.0668442 131.916 0.0334139 126.199C-0.0334465 104.67 -1.63112e-05 83.141 0.0334139 61.6119C0.0334139 57.968 1.6715 55.2267 4.81394 53.3212C11.7006 49.1759 18.5872 44.9637 25.5073 40.8183C26.4099 40.2834 26.7776 39.6817 26.7442 38.6119C26.6773 30.4215 26.8779 22.2311 26.6439 14.0407C26.4099 5.54941 32.9622 -0.13373 40.6177 -9.21311e-06C53.5552 0.234002 66.5262 0.0668513 79.4971 0.033421C80.8677 0.033421 81.8706 0.468014 82.7733 1.47092C91.7994 11.6003 100.859 21.6962 109.952 31.7587C110.922 32.8285 111.557 33.9651 111.289 35.3692C110.654 38.7122 112.092 40.5509 115.033 42.1889C121.051 45.532 126.767 49.4099 132.685 52.9201C136.362 55.1264 138 58.202 138 62.4811C137.933 83.3081 137.833 104.135 138.033 124.962C138.134 135.192 130.879 142.012 123.391 142.981C123.257 142.981 123.157 143.115 123.023 143.182C87.0189 143.215 51.048 143.215 15.0436 143.215ZM4.71365 70.3038C4.71365 71.0727 4.71365 71.5407 4.71365 72.0087C4.71365 89.7602 4.71365 107.512 4.71365 125.263C4.71365 133.32 9.92876 138.568 17.9855 138.568C51.9506 138.568 85.9491 138.568 119.914 138.568C120.984 138.568 122.087 138.568 123.124 138.334C129.275 137.131 133.286 132.116 133.32 125.631C133.353 107.645 133.32 89.6599 133.32 71.6744C133.32 71.3401 133.286 70.9724 133.253 70.4041C132.651 70.7718 132.217 71.0058 131.782 71.2732C111.557 83.6424 91.3314 95.9782 71.1061 108.347C69.6017 109.283 68.3982 109.283 66.8939 108.347C50.2791 98.1512 33.5974 87.9884 16.9491 77.8256C12.9709 75.3517 8.95929 72.8779 4.71365 70.3038ZM78.0596 4.81394C77.625 4.78051 77.3576 4.74708 77.0901 4.74708C64.5872 4.74708 52.1177 4.71365 39.6148 4.74708C34.7674 4.78051 31.3241 8.32412 31.3241 13.2384C31.2907 35.5029 31.2907 57.7674 31.3575 80.0654C31.3575 80.5669 31.7587 81.3023 32.1933 81.5698C44.1613 88.9244 56.1628 96.2791 68.1977 103.567C68.5988 103.801 69.3677 103.834 69.7689 103.6C81.8038 96.3125 93.7718 88.9913 105.773 81.6032C106.208 81.3358 106.609 80.6003 106.609 80.0654C106.642 65.3895 106.642 50.7137 106.642 36.0378C106.642 34.4666 105.406 33.2631 103.868 33.2631C99.8227 33.2631 95.7442 33.2631 91.6991 33.2631C83.609 33.2296 78.1264 27.7471 78.093 19.6235C78.0596 15.2107 78.093 10.7645 78.093 6.35174C78.0596 5.88371 78.0596 5.38226 78.0596 4.81394ZM111.356 78.0262C111.59 77.9927 111.724 78.0262 111.791 77.9927C118.778 73.7471 125.765 69.468 132.751 65.1889C132.985 65.0552 133.219 64.8546 133.286 64.6206C134.222 62.1134 132.985 58.7035 130.679 57.266C124.628 53.5218 118.577 49.7776 112.493 46.0669C112.158 45.8663 111.791 45.6991 111.323 45.4651C111.356 56.3634 111.356 67.1613 111.356 78.0262ZM26.6439 45.7326C26.4099 45.766 26.3096 45.766 26.2427 45.7994C19.7573 49.7108 13.2718 53.6555 6.78632 57.5669C5.41568 58.4026 4.74708 59.673 4.71365 61.311C4.71365 62.0465 4.78051 62.8154 4.68022 63.5509C4.57993 64.4535 4.8808 64.9549 5.68312 65.4564C12.3357 69.468 18.9549 73.5465 25.5741 77.5581C25.875 77.7253 26.1759 77.859 26.6105 78.0596C26.6439 67.2282 26.6439 56.5305 26.6439 45.7326ZM82.7398 8.49127C82.7398 12.7703 82.7064 16.5814 82.7398 20.359C82.8067 25.0058 86.3169 28.516 90.9971 28.5828C93.8721 28.6163 96.7805 28.5828 99.6555 28.5828C99.923 28.5828 100.224 28.4825 100.625 28.4157C94.7078 21.7965 88.8576 15.311 82.7398 8.49127Z" fill="#004351"/>
<path d="M94.641 54.9927C94.641 69.1337 83.2078 80.6002 69.0668 80.6337C54.859 80.6671 43.3256 69.1671 43.3256 55.0261C43.3256 40.8182 54.8256 29.3851 69.0334 29.4185C83.2078 29.4185 94.6075 40.8182 94.641 54.9927ZM68.9665 75.9534C80.5668 75.9534 89.9607 66.5595 89.9942 54.9927C89.9942 43.4258 80.5668 33.965 69 33.965C57.4331 33.965 48.0392 43.3589 48.0058 54.9592C48.0058 66.593 57.3328 75.9534 68.9665 75.9534Z" fill="#004351"/>
<path d="M65.8241 56.6309C69.0669 53.9899 72.2427 51.4157 75.4186 48.8416C75.6192 48.6745 75.8532 48.4739 76.0538 48.3067C77.2573 47.471 78.5945 47.5713 79.4302 48.6076C80.266 49.6439 80.0988 50.9811 78.9622 51.9506C76.4549 54.0233 73.9142 56.0625 71.407 58.1352C70.0363 59.2384 68.6657 60.375 67.2951 61.4782C65.891 62.5814 64.6875 62.4812 63.5174 61.1105C61.9462 59.3053 60.4084 57.5 58.9041 55.6948C57.7674 54.3576 57.8009 52.8867 58.9041 52.0175C59.9738 51.1483 61.311 51.3823 62.4477 52.6527C63.5509 53.9564 64.6541 55.2602 65.8241 56.6309Z" fill="#004351"/>
</g>
<defs>
<clipPath id="clip0_398_1159">
<rect width="138" height="143.215" fill="white"/>
</clipPath>
</defs>
</svg>
