<svg width="40" height="40" viewBox="0 0 40 40" fill="none" xmlns="http://www.w3.org/2000/svg">
<path d="M21.6667 19.9999H26.6667L20 26.6666L13.3333 19.9999H18.3333V13.3333H21.6667V19.9999ZM25 6.66659H8.33333V33.3333H31.6667V13.3333H25V6.66659ZM5 4.98659C5 4.07325 5.745 3.33325 6.665 3.33325H26.6667L35 11.6666V34.9883C35.0015 35.2071 34.96 35.4242 34.8776 35.627C34.7953 35.8298 34.6738 36.0143 34.5201 36.1702C34.3664 36.326 34.1836 36.4501 33.9819 36.5353C33.7803 36.6204 33.5639 36.6651 33.345 36.6666H6.655C6.2173 36.6635 5.79836 36.4884 5.4887 36.1791C5.17903 35.8697 5.00349 35.451 5 35.0133V4.98659Z" fill="white"/>
</svg>
