<svg version="1.2" baseProfile="tiny-ps" xmlns="http://www.w3.org/2000/svg" viewBox="0 0 29 29" width="29" height="29">
	<title>group-4(1)-svg</title>
	<style>
		tspan { white-space:pre }
		.shp0 { fill: #000000 } 
		.shp1 { fill: #42505e } 
		.shp2 { fill: #ffffff } 
	</style>
	<g id="Layer">
		<g id="Layer">
			<g id="Layer">
				<g id="Layer">
					<g id="Layer">
						<g id="Layer">
							<path id="8zrjy1xsib" class="shp0" d="M14.99 28.71C7.24 28.98 0.76 22.93 0.49 15.19C0.22 7.44 6.26 0.96 14.01 0.69C21.76 0.42 28.24 6.46 28.51 14.21C28.78 21.96 22.74 28.44 14.99 28.71Z" />
							<path id="8zrjy1xsib" class="shp1" d="M14.99 28.71C7.24 28.98 0.76 22.93 0.49 15.19C0.22 7.44 6.26 0.96 14.01 0.69C21.76 0.42 28.24 6.46 28.51 14.21C28.78 21.96 22.74 28.44 14.99 28.71Z" />
						</g>
						<g id="Layer">
							<path id="Layer" class="shp2" d="M19.21 14.81L19.21 14.8C19.22 14.79 19.23 14.78 19.24 14.77C19.24 14.76 19.24 14.76 19.25 14.76C19.25 14.74 19.26 14.73 19.27 14.72C19.27 14.72 19.27 14.71 19.27 14.71L19.29 14.68C19.29 14.67 19.29 14.67 19.29 14.67C19.3 14.66 19.3 14.64 19.31 14.63C19.31 14.62 19.31 14.62 19.31 14.62C19.31 14.61 19.32 14.59 19.32 14.58C19.32 14.57 19.32 14.57 19.32 14.56C19.33 14.55 19.33 14.54 19.33 14.52C19.33 14.51 19.33 14.49 19.33 14.47C19.33 14.45 19.33 14.44 19.33 14.42C19.33 14.41 19.33 14.4 19.32 14.38C19.32 14.38 19.32 14.38 19.32 14.37L19.31 14.33C19.31 14.32 19.31 14.32 19.31 14.32C19.3 14.31 19.3 14.29 19.29 14.28C19.29 14.27 19.29 14.27 19.29 14.27L19.27 14.23C19.27 14.23 19.27 14.23 19.27 14.23C19.26 14.21 19.25 14.2 19.25 14.19C19.24 14.19 19.24 14.18 19.24 14.18C19.23 14.17 19.22 14.16 19.21 14.15L19.21 14.14C19.2 14.13 19.19 14.11 19.17 14.1L16.12 11.08C15.91 10.88 15.58 10.88 15.37 11.08C15.17 11.29 15.17 11.62 15.37 11.83L17.52 13.95L8.99 13.95C8.69 13.95 8.46 14.19 8.46 14.47C8.46 14.76 8.69 15 8.99 15L17.52 15L15.39 17.11C15.19 17.31 15.19 17.64 15.39 17.85C15.49 17.95 15.63 18 15.76 18C15.9 18 16.04 17.95 16.14 17.85L19.17 14.85C19.18 14.83 19.2 14.82 19.21 14.81Z" />
						</g>
					</g>
				</g>
			</g>
		</g>
	</g>
</svg>