<svg width="18" height="16" viewBox="0 0 18 16" fill="none" xmlns="http://www.w3.org/2000/svg">
<path d="M9.72461 5.9021C9.72461 5.62596 9.50075 5.4021 9.22461 5.4021C8.94847 5.4021 8.72461 5.62596 8.72461 5.9021L9.72461 5.9021ZM8.87106 14.8952C9.06632 15.0905 9.3829 15.0905 9.57816 14.8952L12.7601 11.7133C12.9554 11.518 12.9554 11.2014 12.7601 11.0061C12.5649 10.8109 12.2483 10.8109 12.053 11.0061L9.22461 13.8346L6.39618 11.0061C6.20092 10.8109 5.88434 10.8109 5.68908 11.0061C5.49381 11.2014 5.49381 11.518 5.68907 11.7133L8.87106 14.8952ZM8.72461 5.9021L8.72461 14.5417L9.72461 14.5417L9.72461 5.9021L8.72461 5.9021Z" fill="white"/>
<path d="M17.1992 9.88953L17.1992 4.24994C17.1992 2.59309 15.8561 1.24994 14.1992 1.24994L4.24922 1.24994C2.59237 1.24994 1.24922 2.59309 1.24922 4.24994L1.24922 9.88952" stroke="white" stroke-linecap="round"/>
</svg>
