<svg xmlns="http://www.w3.org/2000/svg" width="20" height="20" viewBox="0 0 20 20">
    <g fill="none" fill-rule="evenodd">
        <g>
            <g>
                <g>
                    <g>
                        <path d="M0 0H20V20H0z" transform="translate(-1274 -448) translate(90 330) translate(1150 118) translate(34)"/>
                        <g fill="#004351" fill-rule="nonzero" stroke="#FFF" stroke-width=".2">
                            <path d="M16.797 16.094H.703c-.389 0-.703.314-.703.703 0 .389.314.703.703.703h16.094c.389 0 .703-.314.703-.703 0-.389-.314-.703-.703-.703zM4.53 13.789l4.6-1.947c.074-.031.14-.076.2-.133l7.757-7.758c.549-.549.553-1.443.004-1.992L15.543.41c-.549-.549-1.443-.545-1.992.004L5.793 8.172c-.057.057-.102.125-.133.2l-1.95 4.597c-.108.258-.032.517.134.685.166.168.427.244.687.135zM14.545 1.41l.004-.005 1.547 1.547-.004.004-1.211 1.211-1.547-1.547 1.21-1.21zm-7.65 7.65l5.445-5.446 1.547 1.547-5.446 5.445-2.683 1.137L6.895 9.06z" transform="translate(-1274 -448) translate(90 330) translate(1150 118) translate(34) translate(1.25 1.25)"/>
                        </g>
                    </g>
                </g>
            </g>
        </g>
    </g>
</svg>
