<svg width="20" height="20" viewBox="0 0 20 20" fill="none" xmlns="http://www.w3.org/2000/svg">
<path d="M10 20C4.477 20 0 15.523 0 10C0 4.477 4.477 0 10 0C15.523 0 20 4.477 20 10C20 15.523 15.523 20 10 20ZM10 18C12.1217 18 14.1566 17.1571 15.6569 15.6569C17.1571 14.1566 18 12.1217 18 10C18 7.87827 17.1571 5.84344 15.6569 4.34315C14.1566 2.84285 12.1217 2 10 2C7.87827 2 5.84344 2.84285 4.34315 4.34315C2.84285 5.84344 2 7.87827 2 10C2 12.1217 2.84285 14.1566 4.34315 15.6569C5.84344 17.1571 7.87827 18 10 18Z" fill="#004351"/>
<g clip-path="url(#clip0_382_1153)">
<path d="M11.9 14.4C11.6 14.5 11.4 14.5 11.1 14.6C10.4 14.7 10 14.4 10.2 13.6C10.3 13 10.5 12.5 10.6 11.9C10.8 11.1 11.1 10.4 11.1 9.59999C11.1 8.99999 11 8.59999 10.5 8.19999C10 7.89999 9.5 7.89999 9 7.99999C8.4 7.99999 7.8 8.29999 7.2 8.49999C7.2 8.49999 7.1 8.49999 7.1 8.59999C7.1 8.79999 7.1 8.99999 7 9.19999C7.1 9.19999 7.2 9.09999 7.3 9.09999C7.7 8.99999 8 8.89999 8.3 8.99999C8.5 9.09999 8.7 9.19999 8.7 9.39999C8.7 9.69999 8.7 9.99999 8.6 10.3C8.5 11 8.3 11.6 8.1 12.2C8 12.8 7.8 13.4 7.8 14C7.8 14.7 8.1 15.2 8.7 15.4C9.2 15.6 9.7 15.6 10.2 15.5C10.7 15.4 11.2 15.2 11.7 15C11.7 15 11.8 15 11.8 14.9C11.9 14.8 11.9 14.6 11.9 14.4Z" fill="#004351"/>
<path d="M10.7 4C10.5 4 10.3 4.1 10.2 4.1C9.29997 4.4 8.99997 5.4 9.39997 6.1C9.79997 6.6 10.3 6.8 10.9 6.7C11.6 6.6 12.2 5.9 12.1 5.2C12 4.5 11.4 4 10.7 4Z" fill="#004351"/>
</g>
<defs>
<clipPath id="clip0_382_1153">
<rect width="5.1" height="11.6" fill="white" transform="translate(7 4)"/>
</clipPath>
</defs>
</svg>
