<svg
    class="icon--file"
    xmlns="http://www.w3.org/2000/svg"
    width="28"
    height="29"
    viewBox="0 0 28 29"
    >
    <g fill="none" fill-rule="evenodd" opacity=".8">
        <g>
        <g>
            <path
            d="M0 0H27.429V28.408H0z"
            transform="translate(-21 -267) translate(21 267)"
            />
            <g
            fill="#596D81"
            fill-rule="nonzero"
            stroke="#FFF"
            stroke-width=".686"
            >
            <path
                d="M24.262 10.67l-.101-.666-1.964-.68c-.171-.55-.385-1.087-.64-1.6l.927-1.918-.38-.549c-.772-1.09-1.693-2.044-2.74-2.832l-.528-.394-1.851.96c-.498-.264-1.015-.486-1.546-.663L14.786.3l-.638-.103c-.71-.117-1.323-.172-1.934-.172-.594 0-1.21.055-1.936.175l-.643.105-.654 2.036c-.54.184-1.06.405-1.545.66L5.588 2.04l-.528.394c-1.05.788-1.972 1.74-2.738 2.832l-.38.55.927 1.917c-.252.513-.466 1.048-.638 1.598l-1.963.674-.102.666C.054 11.405 0 12.06 0 12.678c0 .622.054 1.276.166 2.006l.102.666 1.963.68c.172.549.386 1.087.64 1.6l-.921 1.912.38.543c.397.572.807 1.074 1.251 1.537.415.433.9.858 1.482 1.299l.527.394 1.848-.96c.499.263 1.016.488 1.546.663l.653 2.036.643.106c.705.116 1.337.172 1.934.172.598 0 1.23-.056 1.937-.172l.643-.106.653-2.036c.525-.178 1.042-.4 1.543-.66l1.851.96.528-.394c.576-.43 1.06-.855 1.481-1.299.437-.452.844-.957 1.25-1.537l.381-.55-.927-1.916c.255-.513.47-1.049.64-1.6l1.964-.68.102-.666c.112-.73.166-1.385.166-2.003.008-.613-.046-1.27-.163-2.003zm-1.754 1.986v.014c0 .374-.024.755-.07 1.162l-.948.328-.838.294-.26.874c-.147.505-.343.996-.581 1.462l-.413.807.841 1.74c-.246.321-.49.607-.744.87l-.006.006c-.249.26-.525.513-.835.766l-1.675-.869-.776.42c-.458.246-.94.452-1.43.612l-.84.272-.272.86-.316.982c-.391.05-.761.073-1.123.073-.359 0-.728-.025-1.122-.073l-.316-.982-.276-.868-.844-.27c-.498-.157-.972-.36-1.411-.601l-.782-.422-.79.408-.893.46c-.31-.255-.586-.507-.84-.77-.26-.27-.504-.556-.745-.872l.835-1.734-.407-.804c-.244-.483-.442-.977-.586-1.47l-.26-.874L2 13.843c-.048-.405-.07-.787-.07-1.162 0-.374.024-.755.07-1.162l1.778-.613.26-.872c.15-.502.349-.998.587-1.475l.407-.805-.391-.813-.445-.924c.47-.604 1.002-1.157 1.586-1.642l1.677.868.78-.424c.45-.244.929-.45 1.424-.61l.839-.272.278-.863.316-.982c.405-.047.772-.072 1.12-.072.359 0 .729.025 1.12.072l.594 1.84.839.268c.487.158.967.364 1.425.608l.776.421 1.675-.868c.583.486 1.12 1.038 1.593 1.645l-.835 1.734.401.802c.239.477.44.976.592 1.484l.263.868.833.289.948.327c.051.416.072.791.067 1.146zM12.22 7.843c-2.574 0-4.67 2.17-4.67 4.835 0 2.666 2.096 4.836 4.67 4.836s4.668-2.17 4.668-4.836c0-2.666-2.094-4.835-4.668-4.835zm1.936 6.841c-.517.535-1.205.832-1.936.832-.732 0-1.42-.294-1.937-.832-.517-.535-.804-1.248-.804-2.006 0-.757.284-1.47.804-2.006.517-.535 1.205-.832 1.937-.832.73 0 1.42.294 1.936.832.517.539.804 1.249.804 2.006 0 .758-.287 1.47-.804 2.006z"
                transform="translate(-21 -267) translate(21 267) translate(1.5 1.526)"
            />
            </g>
        </g>
        </g>
    </g>
</svg>