<svg width="18" height="16" viewBox="0 0 18 16" fill="none" xmlns="http://www.w3.org/2000/svg">
<path d="M8.72461 9.88953C8.72461 10.1657 8.94847 10.3895 9.22461 10.3895C9.50075 10.3895 9.72461 10.1657 9.72461 9.88953H8.72461ZM9.57816 0.896389C9.3829 0.701127 9.06632 0.701127 8.87106 0.896389L5.68908 4.07837C5.49381 4.27363 5.49381 4.59021 5.68908 4.78548C5.88434 4.98074 6.20092 4.98074 6.39618 4.78548L9.22461 1.95705L12.053 4.78548C12.2483 4.98074 12.5649 4.98074 12.7601 4.78548C12.9554 4.59021 12.9554 4.27363 12.7601 4.07837L9.57816 0.896389ZM9.72461 9.88953V1.24994H8.72461V9.88953H9.72461Z" fill="white"/>
<path d="M1.25 5.9021V11.5417C1.25 13.1985 2.59314 14.5417 4.25 14.5417H14.2C15.8569 14.5417 17.2 13.1985 17.2 11.5417V5.9021" stroke="white" stroke-linecap="round"/>
</svg>
