<svg xmlns="http://www.w3.org/2000/svg" xmlns:xlink="http://www.w3.org/1999/xlink" width="30" height="30" viewBox="0 0 30 30">
    <defs>
        <circle id="fv415e6fqa" cx="15" cy="15" r="15"/>
    </defs>
    <g fill="none" fill-rule="evenodd">
        <g>
            <g>
                <g transform="translate(-1271 -19) translate(1271 17) translate(0 2)">
                    <mask id="uo1cd7en2b" fill="#fff">
                        <use xlink:href="#fv415e6fqa"/>
                    </mask>
                    <use fill="#F7F7F7" xlink:href="#fv415e6fqa"/>
                    <g mask="url(#uo1cd7en2b)" opacity=".679">
                        <g>
                            <path d="M0 0H18V18H0z" transform="translate(6 6)"/>
                            <g opacity=".695">
                                <path fill="#415263" fill-rule="nonzero" d="M11.275 12.814c-.296-.697-.72-1.325-1.257-1.863-.538-.538-1.166-.961-1.864-1.257-.237-.1-.481-.184-.727-.253.696-.235 1.334-.63 1.868-1.163.914-.915 1.419-2.13 1.419-3.423 0-1.292-.503-2.508-1.419-3.422C8.381.519 7.165.014 5.873.014 4.58.014 3.364.517 2.45 1.433c-.914.914-1.418 2.13-1.418 3.422 0 1.292.503 2.508 1.418 3.423.535.534 1.173.928 1.869 1.163-.246.069-.49.151-.728.253-.698.296-1.325.72-1.863 1.257-.538.538-.962 1.166-1.257 1.863-.306.725-.46 1.491-.46 2.284 0 .35.283.633.632.633.35 0 .633-.283.633-.633 0-1.229.478-2.384 1.347-3.252.868-.868 2.023-1.347 3.252-1.347 1.228 0 2.383.479 3.252 1.347.868.868 1.346 2.023 1.346 3.252 0 .35.283.633.633.633.35 0 .633-.283.633-.633-.004-.793-.159-1.56-.464-2.284zm-8.98-7.959c0-1.972 1.606-3.575 3.576-3.575s3.575 1.603 3.575 3.575c0 1.972-1.603 3.575-3.575 3.575-1.972 0-3.575-1.604-3.575-3.575z" transform="translate(6 6) translate(3.129 1.143)"/>
                            </g>
                        </g>
                    </g>
                </g>
            </g>
        </g>
    </g>
</svg>
