<svg xmlns="http://www.w3.org/2000/svg" width="20" height="20" viewBox="0 0 20 20">
    <g fill="none" fill-rule="evenodd">
        <g>
            <g>
                <g>
                    <path d="M0 0H20V20H0z" transform="translate(-135 -639) translate(93 233) translate(42 406)"/>
                    <g fill="#FFB600" fill-rule="nonzero">
                        <path d="M16.113 0H1.406C.631 0 0 .63 0 1.406v14.688c0 .775.63 1.406 1.406 1.406h5.41c.39 0 .704-.314.704-.703 0-.389-.315-.703-.704-.703h-5.41V1.406h14.707v14.688h-1.64c-.389 0-.703.314-.703.703 0 .389.314.703.703.703h1.64c.776 0 1.407-.63 1.407-1.406V1.406C17.52.631 16.889 0 16.113 0z" transform="translate(-135 -639) translate(93 233) translate(42 406) translate(1.25 1.25)"/>
                        <path d="M11.27 16.797c0 .251.134.483.351.609.218.125.486.125.703 0 .218-.126.352-.358.352-.61 0-.25-.134-.482-.352-.608-.217-.126-.485-.126-.703 0-.217.126-.351.358-.351.609zM11.973 6.25c-.389 0-.703.314-.703.703v7.344c0 .389.314.703.703.703.388 0 .703-.314.703-.703V6.953c0-.389-.315-.703-.703-.703zm-2.657-2.5H3.223c-.389 0-.703.314-.703.703 0 .389.314.703.703.703h6.093c.39 0 .704-.314.704-.703 0-.389-.315-.703-.704-.703zm-2.5 3.75H3.223c-.389 0-.703.314-.703.703 0 .389.314.703.703.703h3.593c.39 0 .704-.314.704-.703 0-.389-.315-.703-.704-.703zm0 3.75H3.223c-.389 0-.703.314-.703.703 0 .389.314.703.703.703h3.593c.39 0 .704-.314.704-.703 0-.389-.315-.703-.704-.703z" transform="translate(-135 -639) translate(93 233) translate(42 406) translate(1.25 1.25)"/>
                    </g>
                </g>
            </g>
        </g>
    </g>
</svg>
