<svg xmlns="http://www.w3.org/2000/svg" width="20" height="20" viewBox="0 0 20 20">
    <g fill="none" fill-rule="evenodd">
        <g>
            <g>
                <g>
                    <path d="M0 0H20V20H0z" transform="translate(-412 -639) translate(93 233) translate(319 406)"/>
                    <g fill="#BE4B27" fill-rule="nonzero">
                        <path d="M16.113 0H1.406C.631 0 0 .63 0 1.406v14.688c0 .775.63 1.406 1.406 1.406h5.41c.39 0 .704-.314.704-.703 0-.389-.315-.703-.704-.703h-5.41V1.406h14.707v14.688h-1.64c-.389 0-.703.314-.703.703 0 .389.314.703.703.703h1.64c.776 0 1.407-.63 1.407-1.406V1.406C17.52.631 16.889 0 16.113 0z" transform="translate(-412 -639) translate(93 233) translate(319 406) translate(1.25 1.25)"/>
                        <path d="M9.316 3.75H3.223c-.389 0-.703.314-.703.703 0 .389.314.703.703.703h6.093c.39 0 .704-.314.704-.703 0-.389-.315-.703-.704-.703zm-2.5 3.75H3.223c-.389 0-.703.314-.703.703 0 .389.314.703.703.703h3.593c.39 0 .704-.314.704-.703 0-.389-.315-.703-.704-.703zm0 3.75H3.223c-.389 0-.703.314-.703.703 0 .389.314.703.703.703h3.593c.39 0 .704-.314.704-.703 0-.389-.315-.703-.704-.703z" transform="translate(-412 -639) translate(93 233) translate(319 406) translate(1.25 1.25)"/>
                    </g>
                </g>
            </g>
        </g>
    </g>
</svg>
