<svg xmlns="http://www.w3.org/2000/svg" width="28" height="28" viewBox="0 0 28 28">
    <g fill="none" fill-rule="evenodd" opacity=".8">
        <g>
            <g>
                <g>
                    <g>
                        <path d="M0 0H27.429V27.429H0z" transform="translate(-100 -234) translate(93 233) translate(7) translate(0 1)"/>
                        <g fill="#596D81" fill-rule="nonzero" stroke="#F9F9F9" stroke-width=".543">
                            <path d="M6.29 21.74c-.39 0-.762-.193-.98-.523L.192 13.213c-.355-.531-.205-1.245.34-1.594.54-.349 1.267-.202 1.623.333l3.663 5.824 1.486-5.674c.085-.326.317-.602.626-.749l5.932-2.817c.541-.256 1.193-.07 1.51.432l2.982 4.748L22.71.791c.206-.605.867-.931 1.483-.733.617.202.949.852.747 1.457l-5.15 15.271c-.143.426-.525.73-.978.781-.453.052-.896-.16-1.134-.54l-3.748-5.962-4.488 2.132-2.015 7.678c-.117.442-.485.774-.945.848-.065.01-.13.016-.192.016z" transform="translate(-100 -234) translate(93 233) translate(7) translate(0 1) translate(1 3)"/>
                        </g>
                    </g>
                </g>
            </g>
        </g>
    </g>
</svg>
