<svg xmlns="http://www.w3.org/2000/svg" width="24" height="24" viewBox="0 0 24 24">
    <g fill="none" fill-rule="evenodd" opacity=".8">
        <g>
            <g>
                <g>
                    <path d="M0 0H24V24H0z" transform="translate(-649 -233) translate(643 233) translate(6)"/>
                    <g fill="#596D81" fill-rule="nonzero">
                        <path d="M20.156 19.336H1.688V.844C1.688.377 1.31 0 .844 0 .377 0 0 .377 0 .844V20.18c0 .466.377.843.844.843h19.312c.467 0 .844-.377.844-.843 0-.467-.377-.844-.844-.844zM4.448 13.448c0 .855.693 1.547 1.547 1.547.855 0 1.547-.692 1.547-1.547 0-.854-.692-1.546-1.547-1.546-.854 0-1.547.692-1.547 1.546zm6.075-.932c0 1.106.898 2.004 2.004 2.004 1.107 0 2.004-.898 2.004-2.004 0-1.107-.897-2.004-2.004-2.004-1.106 0-2.004.897-2.004 2.004zm1.2-5.044c0 .775.629 1.404 1.404 1.404.776 0 1.404-.629 1.404-1.404 0-.775-.628-1.404-1.404-1.404-.775 0-1.404.629-1.404 1.404zm5.66-3.356c0 .589.478 1.066 1.067 1.066s1.066-.477 1.066-1.066c0-.59-.477-1.067-1.066-1.067-.589 0-1.066.478-1.066 1.067zm.582 4.483c0 .431.35.78.78.78.431 0 .78-.349.78-.78 0-.43-.349-.78-.78-.78-.43 0-.78.35-.78.78z" transform="translate(-649 -233) translate(643 233) translate(6) translate(1.5 1.477)"/>
                    </g>
                </g>
            </g>
        </g>
    </g>
</svg>
