<svg xmlns="http://www.w3.org/2000/svg" width="20" height="20" viewBox="0 0 20 20">
    <g fill="none" fill-rule="evenodd">
        <g>
            <g>
                <g>
                    <path d="M0 0H20V20H0z" transform="translate(-413 -306) translate(93 233) translate(320 73)"/>
                    <g>
                        <path d="M0.02 0H20V19.98H0.02z" transform="translate(-413 -306) translate(93 233) translate(320 73)"/>
                        <g fill="#F9A01A" fill-rule="nonzero">
                            <path d="M18.732 6.252v-2.35c0-.776-.629-1.404-1.405-1.404H9.54L9.054.978C8.868.394 8.328 0 7.715 0h-6.31C.628 0 0 .628 0 1.405v13.43c0 .068.006.137.016.203 0 .002 0 .006.002.008.003.02.005.039.01.058.001.006.001.012.003.016l.012.049.008.029.006.023c.005.022.011.041.02.061v.002c.071.21.192.398.35.55l.004.004.045.041.022.02.021.017.039.031.012.008c.015.012.033.024.049.035.001 0 .001.002.003.002.184.123.398.207.635.23l.01.002c.02.002.04.004.062.004h.011l.065.002H16.78c.644 0 1.206-.439 1.364-1.063l1.796-7.18c.206-.832-.377-1.644-1.208-1.735zM1.405 1.405H7.71l.804 2.497h8.812v2.342H3.2c-.644 0-1.206.439-1.364 1.063L1.405 9.04V1.405zM16.78 14.829H1.405L3.2 7.65h15.376l-1.796 7.18z" transform="translate(-413 -306) translate(93 233) translate(320 73) translate(0 1.873)"/>
                        </g>
                    </g>
                </g>
            </g>
        </g>
    </g>
</svg>
