<svg width="17" height="21" viewBox="0 0 17 21" fill="none" xmlns="http://www.w3.org/2000/svg">
<path d="M16.2617 21H14.229V19C14.229 18.2044 13.9077 17.4413 13.3359 16.8787C12.7641 16.3161 11.9886 16 11.1799 16H5.08178C4.27311 16 3.49757 16.3161 2.92576 16.8787C2.35395 17.4413 2.03271 18.2044 2.03271 19V21H0V19C0 17.6739 0.5354 16.4021 1.48842 15.4645C2.44144 14.5268 3.73401 14 5.08178 14H11.1799C12.5277 14 13.8202 14.5268 14.7733 15.4645C15.7263 16.4021 16.2617 17.6739 16.2617 19V21ZM8.13084 12C7.33002 12 6.53705 11.8448 5.79719 11.5433C5.05733 11.2417 4.38508 10.7998 3.81881 10.2426C3.25255 9.68549 2.80336 9.02405 2.4969 8.2961C2.19044 7.56815 2.03271 6.78793 2.03271 6C2.03271 5.21207 2.19044 4.43185 2.4969 3.7039C2.80336 2.97595 3.25255 2.31451 3.81881 1.75736C4.38508 1.20021 5.05733 0.758251 5.79719 0.456723C6.53705 0.155195 7.33002 -1.17411e-08 8.13084 0C9.74817 2.37122e-08 11.2993 0.632141 12.4429 1.75736C13.5865 2.88258 14.229 4.4087 14.229 6C14.229 7.5913 13.5865 9.11742 12.4429 10.2426C11.2993 11.3679 9.74817 12 8.13084 12ZM8.13084 10C9.20906 10 10.2431 9.57857 11.0055 8.82843C11.7679 8.07828 12.1963 7.06087 12.1963 6C12.1963 4.93913 11.7679 3.92172 11.0055 3.17157C10.2431 2.42143 9.20906 2 8.13084 2C7.05263 2 6.01857 2.42143 5.25616 3.17157C4.49374 3.92172 4.06542 4.93913 4.06542 6C4.06542 7.06087 4.49374 8.07828 5.25616 8.82843C6.01857 9.57857 7.05263 10 8.13084 10Z" fill="white"/>
</svg>
